<svg xmlns="http://www.w3.org/2000/svg" xmlns:xlink="http://www.w3.org/1999/xlink" viewBox="0 0 149.64 175.4"><defs><style>.cls-1{isolation:isolate;}.cls-10,.cls-2,.cls-3,.cls-4,.cls-5,.cls-6,.cls-7,.cls-8,.cls-9{fill-rule:evenodd;}.cls-2{opacity:0.84;mix-blend-mode:multiply;fill:url(#linear-gradient);}.cls-3{fill:#a8c738;}.cls-4{fill:#c6c6c5;}.cls-5{fill:#f3efc9;}.cls-6{fill:#d0da60;}.cls-7{fill:#ebeceb;}.cls-8{fill:#898989;}.cls-9{fill:#f27173;}.cls-10{fill:#81b140;}.cls-11{fill:#92c33e;}</style><linearGradient id="linear-gradient" x1="74.99" y1="117.21" x2="71.82" y2="153.36" gradientUnits="userSpaceOnUse"><stop offset="0" stop-color="#231f20"/><stop offset="0.04" stop-color="#312d2e"/><stop offset="0.24" stop-color="#6f6c6d"/><stop offset="0.43" stop-color="#a2a1a1"/><stop offset="0.6" stop-color="#cac9ca"/><stop offset="0.76" stop-color="#e7e7e7"/><stop offset="0.9" stop-color="#f9f9f9"/><stop offset="1" stop-color="#fff"/></linearGradient></defs><title>logo</title><g class="cls-1"><g id="Layer_1" data-name="Layer 1"><polygon class="cls-2" points="141.89 102.34 141.89 134.71 67.65 154.67 8.27 132.87 8.27 97.6 63.81 99.14 141.89 102.34"/><polygon class="cls-3" points="27.59 77.31 22.06 78.65 21.68 53.84 34.6 50.97 40.24 53.27 27.31 56.18 27.59 77.31"/><polygon class="cls-4" points="22.06 78.65 27.59 77.31 27.64 81.12 33.62 83.78 22.18 86.62 7.62 80.03 19 77.29 22.06 78.65"/><polygon class="cls-5" points="22.06 78.65 19 77.29 7.46 72.17 6.96 47.73 21.68 53.84 22.06 78.65"/><polygon class="cls-6" points="34.6 50.97 21.68 53.84 6.96 47.73 19.81 44.97 21.56 45.68 27.15 44.47 27.2 47.97 34.6 50.97"/><polygon class="cls-7" points="21.56 45.68 19.81 44.97 6.79 39.68 6.28 14.67 21.17 20.28 21.56 45.68"/><polygon class="cls-7" points="22.55 110.86 8.1 103.92 7.62 80.03 22.18 86.62 22.55 110.86"/><polygon class="cls-8" points="28.01 109.4 22.55 110.86 22.18 86.62 33.62 83.78 39.2 86.25 27.75 89.14 28.01 109.4"/><polygon class="cls-4" points="26.52 10.87 36 14.32 41.51 16.32 21.17 20.28 6.28 14.67 26.52 10.87"/><polygon class="cls-8" points="27.15 44.47 21.56 45.68 21.17 20.28 41.51 16.32 41.53 19.53 26.86 22.43 27.15 44.47"/><polygon class="cls-7" points="41.53 19.53 41.51 16.32 36 14.32 35.95 9.1 50.98 14.48 51.01 19.78 47.23 18.41 41.53 19.53"/><polygon class="cls-8" points="121.28 12.18 121.21 15.46 108.85 18.02 108.76 23.56 102.72 21.47 102.8 15.96 121.28 12.18"/><polygon class="cls-7" points="102.8 15.96 102.72 21.47 98.81 20.11 91.9 21.55 91.93 18.19 86.9 16.44 86.94 10.57 102.8 15.96"/><polygon class="cls-4" points="121.28 12.18 102.8 15.96 86.94 10.57 99.53 8.09 105.37 6.93 121.28 12.18"/><polygon class="cls-8" points="99.53 8.09 86.94 10.57 86.9 16.44 81.13 14.45 81.16 8.6 99.57 5.02 99.53 8.09"/><polygon class="cls-3" points="142.42 76.91 130.49 80.09 124.23 81.77 124.75 57.08 143.09 52.58 142.42 76.91"/><polygon class="cls-5" points="124.75 57.08 124.23 81.77 119.69 79.95 114.47 77.86 114.79 59.52 108.25 57.02 108.31 52.91 111.56 52.13 124.75 57.08"/><polygon class="cls-4" points="119.69 79.95 124.23 81.77 130.49 80.09 142.2 84.73 124.06 89.7 112.38 84.93 114.35 84.41 114.41 81.35 119.69 79.95"/><polygon class="cls-6" points="143.09 52.58 124.75 57.08 111.56 52.13 114.94 51.33 114.97 49.36 120.57 48.04 121.7 47.77 124.92 48.95 129.87 47.77 143.09 52.58"/><polygon class="cls-3" points="120.57 48.04 114.97 49.36 115.03 45.73 115.7 45.57 120.59 47.36 120.57 48.04"/><polygon class="cls-6" points="115.7 45.57 115.03 45.73 115.04 45.33 115.7 45.57"/><polygon class="cls-3" points="108.31 52.91 108.25 57.02 102.28 54.75 102.29 54.34 108.31 52.91"/><polygon class="cls-5" points="102.29 54.34 102.28 54.75 101.63 54.5 102.29 54.34"/><polygon class="cls-7" points="120.59 47.36 115.7 45.57 115.04 45.33 115.39 25.85 108.76 23.56 108.85 18.02 125.46 23.68 124.92 48.95 121.7 47.77 120.59 47.36"/><polygon class="cls-7" points="123.55 113.83 113.91 109.65 114.21 92.4 107.75 89.72 107.8 86.16 112.38 84.93 124.06 89.7 123.55 113.83"/><polygon class="cls-8" points="141.55 108.52 123.55 113.83 124.06 89.7 142.2 84.73 141.55 108.52"/><polygon class="cls-8" points="107.8 86.16 107.75 89.72 102.55 87.56 107.8 86.16"/><polygon class="cls-8" points="119.69 79.95 114.41 81.35 114.47 77.86 119.69 79.95"/><polygon class="cls-8" points="143.31 44.57 129.87 47.77 124.92 48.95 125.46 23.68 144 19.68 143.31 44.57"/><polygon class="cls-4" points="108.85 18.02 121.21 15.46 127.35 14.18 144 19.68 125.46 23.68 108.85 18.02"/><polygon class="cls-5" points="27.64 81.12 27.59 77.31 27.31 56.18 42.75 62.59 42.95 87.91 39.2 86.25 33.62 83.78 27.64 81.12"/><polygon class="cls-3" points="42.95 87.91 42.75 62.59 55.74 59.56 61.66 61.96 48.65 65.04 48.77 86.43 42.95 87.91"/><polygon class="cls-4" points="42.95 87.91 48.77 86.43 48.79 90.51 54.52 93.05 43.01 96.05 27.75 89.14 39.2 86.25 42.95 87.91"/><polygon class="cls-6" points="55.74 59.56 42.75 62.59 27.31 56.18 40.24 53.27 42.68 54.26 48.58 52.92 48.6 56.66 55.74 59.56"/><polygon class="cls-7" points="42.68 54.26 40.24 53.27 34.6 50.97 27.2 47.97 27.15 44.47 26.86 22.43 42.48 28.32 42.68 54.26"/><polygon class="cls-7" points="28.07 113.51 28.01 109.4 27.75 89.14 43.01 96.05 43.2 120.78 28.07 113.51"/><polygon class="cls-8" points="48.96 119.16 43.2 120.78 43.01 96.05 54.52 93.05 60.37 95.64 48.84 98.69 48.96 119.16"/><polygon class="cls-4" points="41.53 19.53 47.23 18.41 51.01 19.78 56.73 21.87 62.94 24.13 42.48 28.32 26.86 22.43 41.53 19.53"/><polygon class="cls-7" points="62.94 24.13 56.73 21.87 56.72 16.54 72.47 22.18 72.45 27.59 68.94 26.31 62.94 27.56 62.94 24.13"/><polygon class="cls-5" points="54.52 93.05 48.79 90.51 48.77 86.43 48.65 65.04 64.85 71.77 64.85 97.63 60.37 95.64 54.52 93.05"/><polygon class="cls-7" points="48.96 119.16 48.84 98.69 64.85 105.94 64.85 131.18 48.98 123.56 48.96 119.16"/><polygon class="cls-7" points="55.74 59.56 48.6 56.66 48.58 52.92 48.45 30.57 64.85 36.76 64.85 63.26 61.66 61.96 55.74 59.56"/><polygon class="cls-4" points="68.94 26.31 72.45 27.59 79.31 30.09 85.43 32.31 64.85 36.76 48.45 30.57 62.94 27.56 68.94 26.31"/><polygon class="cls-8" points="48.45 30.57 48.58 52.92 42.68 54.26 42.48 28.32 62.94 24.13 62.94 27.56 48.45 30.57"/><polygon class="cls-7" points="85.43 32.31 79.31 30.09 79.34 24.15 95.87 30.06 95.59 55.94 92.38 54.7 91.59 54.4 86.41 52.41 85.28 51.97 85.43 32.31"/><polygon class="cls-6" points="102.28 54.75 108.25 57.02 114.79 59.52 95.5 64.25 82.38 59.09 85.24 58.4 85.25 56.39 91.59 54.89 92.38 54.7 95.59 55.94 101.63 54.5 102.28 54.75"/><polygon class="cls-5" points="92.38 54.7 91.59 54.89 91.59 54.4 92.38 54.7"/><polygon class="cls-8" points="114.21 92.4 113.91 109.65 113.78 116.72 94.86 122.31 95.13 97.64 114.21 92.4"/><polygon class="cls-4" points="107.75 89.72 114.21 92.4 95.13 97.64 83.51 92.65 85 92.25 85.02 89.12 90.71 87.62 95.22 89.52 102.55 87.56 107.75 89.72"/><polygon class="cls-3" points="102.55 87.56 95.22 89.52 95.5 64.25 114.79 59.52 114.47 77.86 114.41 81.35 114.35 84.41 112.38 84.93 107.8 86.16 102.55 87.56"/><polygon class="cls-8" points="114.94 51.33 111.56 52.13 108.31 52.91 102.29 54.34 101.63 54.5 95.59 55.94 95.87 30.06 115.39 25.85 115.04 45.33 115.03 45.73 114.97 49.36 114.94 51.33"/><polygon class="cls-4" points="98.81 20.11 102.72 21.47 108.76 23.56 115.39 25.85 95.87 30.06 79.34 24.15 91.9 21.55 98.81 20.11"/><polygon class="cls-4" points="86.9 16.44 91.93 18.19 72.47 22.18 56.72 16.54 70.34 13.85 76.11 12.71 81.13 14.45 86.9 16.44"/><polygon class="cls-7" points="76.11 12.71 70.34 13.85 70.34 10.71 66.01 9.21 66.01 3.45 81.16 8.6 81.13 14.45 76.11 12.71"/><polygon class="cls-4" points="66.01 9.21 70.34 10.71 50.98 14.48 35.95 9.1 55.24 5.47 66.01 9.21"/><polygon class="cls-8" points="56.73 21.87 51.01 19.78 50.98 14.48 70.34 10.71 70.34 13.85 56.72 16.54 56.73 21.87"/><polygon class="cls-8" points="85.24 58.4 82.38 59.09 79.17 59.85 72.36 61.47 72.09 61.53 64.85 63.26 64.85 36.76 85.43 32.31 85.28 51.97 85.28 52.67 85.25 56.39 85.24 58.4"/><polygon class="cls-6" points="64.85 63.26 72.09 61.53 72.36 61.65 79.14 64.36 85.18 66.78 64.85 71.77 48.65 65.04 61.66 61.96 64.85 63.26"/><polygon class="cls-9" points="72.36 61.65 72.09 61.53 72.36 61.47 72.36 61.65"/><polygon class="cls-5" points="85.18 66.78 79.14 64.36 79.17 59.85 82.38 59.09 95.5 64.25 95.22 89.52 90.71 87.62 85.05 85.23 85.18 66.78"/><polygon class="cls-8" points="85.05 85.23 90.71 87.62 85.02 89.12 85.05 85.23"/><polygon class="cls-3" points="85.18 66.78 85.05 85.23 85.02 89.12 85 92.25 83.51 92.65 78.99 93.85 73.34 95.36 64.85 97.63 64.85 71.77 85.18 66.78"/><polygon class="cls-4" points="64.85 97.63 73.34 95.36 78.97 97.83 84.94 100.43 64.85 105.94 48.84 98.69 60.37 95.64 64.85 97.63"/><polygon class="cls-7" points="84.94 100.43 78.97 97.83 78.99 93.85 83.51 92.65 95.13 97.64 94.86 122.31 84.81 117.73 84.94 100.43"/><polygon class="cls-8" points="84.94 100.43 84.81 117.73 84.76 125.3 64.85 131.18 64.85 105.94 84.94 100.43"/><polygon class="cls-3" points="79.14 64.36 72.36 61.65 72.36 61.47 79.17 59.85 79.14 64.36"/><polygon class="cls-8" points="79.31 30.09 72.45 27.59 72.47 22.18 91.93 18.19 91.9 21.55 79.34 24.15 79.31 30.09"/><polygon class="cls-3" points="86.41 52.41 91.59 54.4 91.59 54.89 85.25 56.39 85.28 52.67 86.41 52.41"/><polygon class="cls-8" points="73.34 95.36 78.99 93.85 78.97 97.83 73.34 95.36"/><polygon class="cls-6" points="85.28 52.67 85.28 51.97 86.41 52.41 85.28 52.67"/><polygon class="cls-4" points="99.57 5.02 81.16 8.6 66.01 3.45 84.36 0 99.57 5.02"/><polygon class="cls-3" points="27.59 77.31 22.06 78.65 21.68 53.84 34.6 50.97 40.24 53.27 27.31 56.18 27.59 77.31"/><polygon class="cls-4" points="22.06 78.65 27.59 77.31 27.64 81.12 33.62 83.78 22.18 86.62 7.62 80.03 19 77.29 22.06 78.65"/><polygon class="cls-5" points="22.06 78.65 19 77.29 7.46 72.17 6.96 47.73 21.68 53.84 22.06 78.65"/><polygon class="cls-6" points="34.6 50.97 21.68 53.84 6.96 47.73 19.81 44.97 21.56 45.68 27.15 44.47 27.2 47.97 34.6 50.97"/><polygon class="cls-7" points="21.56 45.68 19.81 44.97 6.79 39.68 6.28 14.67 21.17 20.28 21.56 45.68"/><polygon class="cls-7" points="22.55 110.86 8.1 103.92 7.62 80.03 22.18 86.62 22.55 110.86"/><polygon class="cls-8" points="28.01 109.4 22.55 110.86 22.18 86.62 33.62 83.78 39.2 86.25 27.75 89.14 28.01 109.4"/><polygon class="cls-4" points="26.52 10.87 36 14.32 41.51 16.32 21.17 20.28 6.28 14.67 26.52 10.87"/><polygon class="cls-8" points="27.15 44.47 21.56 45.68 21.17 20.28 41.51 16.32 41.53 19.53 26.86 22.43 27.15 44.47"/><polygon class="cls-7" points="41.53 19.53 41.51 16.32 36 14.32 35.95 9.1 50.98 14.48 51.01 19.78 47.23 18.41 41.53 19.53"/><polygon class="cls-8" points="121.28 12.18 121.21 15.46 108.85 18.02 108.76 23.56 102.72 21.47 102.8 15.96 121.28 12.18"/><polygon class="cls-7" points="102.8 15.96 102.72 21.47 98.81 20.11 91.9 21.55 91.93 18.19 86.9 16.44 86.94 10.57 102.8 15.96"/><polygon class="cls-4" points="121.28 12.18 102.8 15.96 86.94 10.57 99.53 8.09 105.37 6.93 121.28 12.18"/><polygon class="cls-8" points="99.53 8.09 86.94 10.57 86.9 16.44 81.13 14.45 81.16 8.6 99.57 5.02 99.53 8.09"/><polygon class="cls-10" points="142.42 76.91 130.49 80.09 124.23 81.77 124.75 57.08 143.09 52.58 142.42 76.91"/><polygon class="cls-5" points="124.75 57.08 124.23 81.77 119.69 79.95 114.47 77.86 114.79 59.52 108.25 57.02 108.31 52.91 111.56 52.13 124.75 57.08"/><polygon class="cls-4" points="119.69 79.95 124.23 81.77 130.49 80.09 142.2 84.73 124.06 89.7 112.38 84.93 114.35 84.41 114.41 81.35 119.69 79.95"/><polygon class="cls-6" points="143.09 52.58 124.75 57.08 111.56 52.13 114.94 51.33 114.97 49.36 120.57 48.04 121.7 47.77 124.92 48.95 129.87 47.77 143.09 52.58"/><polygon class="cls-3" points="120.57 48.04 114.97 49.36 115.03 45.73 115.7 45.57 120.59 47.36 120.57 48.04"/><polygon class="cls-6" points="115.7 45.57 115.03 45.73 115.04 45.33 115.7 45.57"/><polygon class="cls-3" points="108.31 52.91 108.25 57.02 102.28 54.75 102.29 54.34 108.31 52.91"/><polygon class="cls-5" points="102.29 54.34 102.28 54.75 101.63 54.5 102.29 54.34"/><polygon class="cls-7" points="120.59 47.36 115.7 45.57 115.04 45.33 115.39 25.85 108.76 23.56 108.85 18.02 125.46 23.68 124.92 48.95 121.7 47.77 120.59 47.36"/><polygon class="cls-7" points="123.55 113.83 113.91 109.65 114.21 92.4 107.75 89.72 107.8 86.16 112.38 84.93 124.06 89.7 123.55 113.83"/><polygon class="cls-8" points="141.55 108.52 123.55 113.83 124.06 89.7 142.2 84.73 141.55 108.52"/><polygon class="cls-8" points="107.8 86.16 107.75 89.72 102.55 87.56 107.8 86.16"/><polygon class="cls-8" points="119.69 79.95 114.41 81.35 114.47 77.86 119.69 79.95"/><polygon class="cls-8" points="143.31 44.57 129.87 47.77 124.92 48.95 125.46 23.68 144 19.68 143.31 44.57"/><polygon class="cls-4" points="108.85 18.02 121.21 15.46 127.35 14.18 144 19.68 125.46 23.68 108.85 18.02"/><polygon class="cls-5" points="27.64 81.12 27.59 77.31 27.31 56.18 42.75 62.59 42.95 87.91 39.2 86.25 33.62 83.78 27.64 81.12"/><polygon class="cls-3" points="42.95 87.91 42.75 62.59 55.74 59.56 61.66 61.96 48.65 65.04 48.77 86.43 42.95 87.91"/><polygon class="cls-4" points="42.95 87.91 48.77 86.43 48.79 90.51 54.52 93.05 43.01 96.05 27.75 89.14 39.2 86.25 42.95 87.91"/><polygon class="cls-6" points="55.74 59.56 42.75 62.59 27.31 56.18 40.24 53.27 42.68 54.26 48.58 52.92 48.6 56.66 55.74 59.56"/><polygon class="cls-7" points="42.68 54.26 40.24 53.27 34.6 50.97 27.2 47.97 27.15 44.47 26.86 22.43 42.48 28.32 42.68 54.26"/><polygon class="cls-7" points="28.07 113.51 28.01 109.4 27.75 89.14 43.01 96.05 43.2 120.78 28.07 113.51"/><polygon class="cls-8" points="48.96 119.16 43.2 120.78 43.01 96.05 54.52 93.05 60.37 95.64 48.84 98.69 48.96 119.16"/><polygon class="cls-4" points="41.53 19.53 47.23 18.41 51.01 19.78 56.73 21.87 62.94 24.13 42.48 28.32 26.86 22.43 41.53 19.53"/><polygon class="cls-7" points="62.94 24.13 56.73 21.87 56.72 16.54 72.47 22.18 72.45 27.59 68.94 26.31 62.94 27.56 62.94 24.13"/><polygon class="cls-5" points="54.52 93.05 48.79 90.51 48.77 86.43 48.65 65.04 64.85 71.77 64.85 97.63 60.37 95.64 54.52 93.05"/><polygon class="cls-7" points="48.96 119.16 48.84 98.69 64.85 105.94 64.85 131.18 48.98 123.56 48.96 119.16"/><polygon class="cls-7" points="55.74 59.56 48.6 56.66 48.58 52.92 48.45 30.57 64.85 36.76 64.85 63.26 61.66 61.96 55.74 59.56"/><polygon class="cls-4" points="68.94 26.31 72.45 27.59 79.31 30.09 85.43 32.31 64.85 36.76 48.45 30.57 62.94 27.56 68.94 26.31"/><polygon class="cls-8" points="48.45 30.57 48.58 52.92 42.68 54.26 42.48 28.32 62.94 24.13 62.94 27.56 48.45 30.57"/><polygon class="cls-7" points="85.43 32.31 79.31 30.09 79.34 24.15 95.87 30.06 95.59 55.94 92.38 54.7 91.59 54.4 86.41 52.41 85.28 51.97 85.43 32.31"/><polygon class="cls-6" points="102.28 54.75 108.25 57.02 114.79 59.52 95.5 64.25 82.38 59.09 85.24 58.4 85.25 56.39 91.59 54.89 92.38 54.7 95.59 55.94 101.63 54.5 102.28 54.75"/><polygon class="cls-5" points="92.38 54.7 91.59 54.89 91.59 54.4 92.38 54.7"/><polygon class="cls-8" points="114.21 92.4 113.91 109.65 113.78 116.72 94.86 122.31 95.13 97.64 114.21 92.4"/><polygon class="cls-4" points="107.75 89.72 114.21 92.4 95.13 97.64 83.51 92.65 85 92.25 85.02 89.12 90.71 87.62 95.22 89.52 102.55 87.56 107.75 89.72"/><polygon class="cls-10" points="102.55 87.56 95.22 89.52 95.5 64.25 114.79 59.52 114.47 77.86 114.41 81.35 114.35 84.41 112.38 84.93 107.8 86.16 102.55 87.56"/><polygon class="cls-8" points="114.94 51.33 111.56 52.13 108.31 52.91 102.29 54.34 101.63 54.5 95.59 55.94 95.87 30.06 115.39 25.85 115.04 45.33 115.03 45.73 114.97 49.36 114.94 51.33"/><polygon class="cls-4" points="98.81 20.11 102.72 21.47 108.76 23.56 115.39 25.85 95.87 30.06 79.34 24.15 91.9 21.55 98.81 20.11"/><polygon class="cls-4" points="86.9 16.44 91.93 18.19 72.47 22.18 56.72 16.54 70.34 13.85 76.11 12.71 81.13 14.45 86.9 16.44"/><polygon class="cls-7" points="76.11 12.71 70.34 13.85 70.34 10.71 66.01 9.21 66.01 3.45 81.16 8.6 81.13 14.45 76.11 12.71"/><polygon class="cls-4" points="66.01 9.21 70.34 10.71 50.98 14.48 35.95 9.1 55.24 5.47 66.01 9.21"/><polygon class="cls-8" points="56.73 21.87 51.01 19.78 50.98 14.48 70.34 10.71 70.34 13.85 56.72 16.54 56.73 21.87"/><polygon class="cls-8" points="85.24 58.4 82.38 59.09 79.17 59.85 72.36 61.47 72.09 61.53 64.85 63.26 64.85 36.76 85.43 32.31 85.28 51.97 85.28 52.67 85.25 56.39 85.24 58.4"/><polygon class="cls-6" points="64.85 63.26 72.09 61.53 72.36 61.65 79.14 64.36 85.18 66.78 64.85 71.77 48.65 65.04 61.66 61.96 64.85 63.26"/><polygon class="cls-9" points="72.36 61.65 72.09 61.53 72.36 61.47 72.36 61.65"/><polygon class="cls-5" points="85.18 66.78 79.14 64.36 79.17 59.85 82.38 59.09 95.5 64.25 95.22 89.52 90.71 87.62 85.05 85.23 85.18 66.78"/><polygon class="cls-8" points="85.05 85.23 90.71 87.62 85.02 89.12 85.05 85.23"/><polygon class="cls-10" points="85.18 66.78 85.05 85.23 85.02 89.12 85 92.25 83.51 92.65 78.99 93.85 73.34 95.36 64.85 97.63 64.85 71.77 85.18 66.78"/><polygon class="cls-4" points="64.85 97.63 73.34 95.36 78.97 97.83 84.94 100.43 64.85 105.94 48.84 98.69 60.37 95.64 64.85 97.63"/><polygon class="cls-7" points="84.94 100.43 78.97 97.83 78.99 93.85 83.51 92.65 95.13 97.64 94.86 122.31 84.81 117.73 84.94 100.43"/><polygon class="cls-8" points="84.94 100.43 84.81 117.73 84.76 125.3 64.85 131.18 64.85 105.94 84.94 100.43"/><polygon class="cls-3" points="79.14 64.36 72.36 61.65 72.36 61.47 79.17 59.85 79.14 64.36"/><polygon class="cls-8" points="79.31 30.09 72.45 27.59 72.47 22.18 91.93 18.19 91.9 21.55 79.34 24.15 79.31 30.09"/><polygon class="cls-3" points="86.41 52.41 91.59 54.4 91.59 54.89 85.25 56.39 85.28 52.67 86.41 52.41"/><polygon class="cls-8" points="73.34 95.36 78.99 93.85 78.97 97.83 73.34 95.36"/><polygon class="cls-6" points="85.28 52.67 85.28 51.97 86.41 52.41 85.28 52.67"/><polygon class="cls-4" points="99.57 5.02 81.16 8.6 66.01 3.45 84.36 0 99.57 5.02"/><path class="cls-11" d="M348.77,368h-6.31l-.92-10.36h-4.91L335.55,368H330l4.74-41.56H344Zm-9.56-35.83-2,20H341Z" transform="translate(-329.99 -192.94)"/><path class="cls-11" d="M363.13,367.64a10.9,10.9,0,0,1-2.86.32h-9.82l0-41.55h8.91c2.7,0,4.53.55,5.5,1.67s1.3,2.95,1.3,5.72v5.72a6,6,0,0,1-.94,3.86,6.5,6.5,0,0,1-3.65,1.64,5.66,5.66,0,0,1,3.86,1.92,7.18,7.18,0,0,1,1.11,4.34v8.64c0,4.5-1.13,7.07-3.39,7.72Zm-6.6-36.48v11.65H358c1.49,0,2.24-1.08,2.24-3.24v-5.5q0-2.91-2.19-2.91Zm0,16.51V363H358c1.65,0,2.47-1.08,2.47-3.24v-8.64q0-3.45-2.62-3.45Z" transform="translate(-329.99 -192.94)"/><path class="cls-11" d="M369.76,352.52h6.1v9.28c0,.72.15,1.18.44,1.38a3,3,0,0,0,1.59.3,2.8,2.8,0,0,0,1.55-.3c.28-.2.41-.66.41-1.38v-5a6.33,6.33,0,0,0-.65-3,12.83,12.83,0,0,0-1.29-2q-.27-.37-3.89-4.75a30.61,30.61,0,0,1-3.45-4.85,10.45,10.45,0,0,1-.81-4.65v-5.23q0-3.94,2.21-5.29c1.12-.68,3.1-1,5.94-1,4.61,0,7.21,1.17,7.83,3.51a12,12,0,0,1,.32,3V341h-6.2v-8.42c0-.72-.14-1.18-.42-1.37a2.8,2.8,0,0,0-1.55-.3,3,3,0,0,0-1.59.3c-.29.2-.44.66-.44,1.37v4.81a5.39,5.39,0,0,0,.71,2.7,16.84,16.84,0,0,0,1.3,1.83c1.31,1.58,2.59,3.17,3.86,4.75a29.67,29.67,0,0,1,3.42,4.85,11,11,0,0,1,.92,4.86V362c0,2.62-.74,4.39-2.21,5.28-1.12.69-3.09,1-5.94,1-4.6,0-7.21-1.16-7.82-3.5a11.53,11.53,0,0,1-.33-3Z" transform="translate(-329.99 -192.94)"/><path class="cls-11" d="M399.39,368h-6.2l0-36.21h-4.74V326.4h15.71v5.35h-4.75Z" transform="translate(-329.99 -192.94)"/><path class="cls-11" d="M407.05,368V326.39h7.07q5.94,0,7.56,1.64t1.62,7.59v5c0,5-.64,8-1.94,8.91a5.29,5.29,0,0,1-1.89.81l4.7,17.64h-6.52l-4.49-17.7v17.7Zm6.09-36.6v14.31h2.3a1.48,1.48,0,0,0,.76-.17c.51-.28.77-1.78.77-4.48v-5.66c0-2.38-.23-3.67-.71-3.89a2.11,2.11,0,0,0-.82-.11Z" transform="translate(-329.99 -192.94)"/><path class="cls-11" d="M443.7,367.94h-6.32l-.92-10.36h-4.91l-1.07,10.36h-5.56l4.73-41.55h9.29Zm-9.56-35.83-2,20h3.78Z" transform="translate(-329.99 -192.94)"/><path class="cls-11" d="M455.45,340.3v-7.77c0-.72-.13-1.18-.4-1.38a2.9,2.9,0,0,0-1.54-.29,3.05,3.05,0,0,0-1.57.29c-.28.2-.43.66-.43,1.38v29.25c0,.72.15,1.18.43,1.38a3.05,3.05,0,0,0,1.57.29,2.9,2.9,0,0,0,1.54-.29c.27-.2.4-.66.4-1.38v-8.85h6.26v8.85a11.59,11.59,0,0,1-.32,3c-.69,2.34-3.31,3.51-7.88,3.51q-4.26,0-6-1.13c-1.48-1-2.21-2.77-2.21-5.4V332.53c0-2.62.73-4.42,2.21-5.4,1.15-.75,3.14-1.13,6-1.13,4.57,0,7.19,1.17,7.88,3.51a11.59,11.59,0,0,1,.32,3v7.77Z" transform="translate(-329.99 -192.94)"/><path class="cls-11" d="M474.89,367.93h-6.21V331.72h-4.75v-5.34h15.71v5.34h-4.75Z" transform="translate(-329.99 -192.94)"/></g></g></svg>